<svg width="46" height="48" viewBox="0 0 46 48" fill="none" xmlns="http://www.w3.org/2000/svg">
<path d="M22.851 0.0476379C10.5862 0.0476379 0.649017 10.5978 0.649017 23.6191C0.649017 36.6404 10.5862 47.1905 22.851 47.1905C35.1158 47.1905 45.053 36.6404 45.053 23.6191C45.053 10.5978 35.1158 0.0476379 22.851 0.0476379ZM35.7425 26.2804C35.7425 26.9077 35.2591 27.4209 34.6682 27.4209C30.1195 27.4209 26.432 31.1084 26.432 35.6571V36.1651C26.432 36.7925 25.9485 37.3057 25.3577 37.3057H20.3443C19.7535 37.3057 19.27 36.7925 19.27 36.1651V35.6571C19.27 31.1084 15.5826 27.4209 11.0338 27.4209C10.443 27.4209 9.95953 26.9077 9.95953 26.2804V20.9578C9.95953 20.3305 10.443 19.8172 11.0338 19.8172C15.5826 19.8172 19.27 16.1297 19.27 11.581V11.073C19.27 10.4457 19.7535 9.93243 20.3443 9.93243H25.3577C25.9485 9.93243 26.432 10.4457 26.432 11.073V11.581C26.432 16.1297 30.1195 19.8172 34.6682 19.8172C35.2591 19.8172 35.7425 20.3305 35.7425 20.9578V26.2804Z" fill="#79A6DC"/>
</svg>
