<svg width="20" height="19" viewBox="0 0 20 19" fill="none" xmlns="http://www.w3.org/2000/svg">
<path d="M18.2159 7.46429H12.1729V1.35714C12.1729 0.607746 11.5715 0 10.83 0H9.4871C8.74557 0 8.1442 0.607746 8.1442 1.35714V7.46429H2.10119C1.35966 7.46429 0.758301 8.07203 0.758301 8.82143V10.1786C0.758301 10.928 1.35966 11.5357 2.10119 11.5357H8.1442V17.6429C8.1442 18.3923 8.74557 19 9.4871 19H10.83C11.5715 19 12.1729 18.3923 12.1729 17.6429V11.5357H18.2159C18.9574 11.5357 19.5588 10.928 19.5588 10.1786V8.82143C19.5588 8.07203 18.9574 7.46429 18.2159 7.46429Z" fill="#7784FB"/>
</svg>
