<svg width="46" height="45" viewBox="0 0 46 45" fill="none" xmlns="http://www.w3.org/2000/svg">
<path d="M23.0036 0C10.6177 0 0.58252 10.0706 0.58252 22.5C0.58252 34.9294 10.6177 45 23.0036 45C35.3894 45 45.4246 34.9294 45.4246 22.5C45.4246 10.0706 35.3894 0 23.0036 0ZM36.0222 25.0403C36.0222 25.6391 35.534 26.129 34.9374 26.129C30.3437 26.129 26.6199 29.8822 26.6199 34.4758C26.6199 35.0746 26.1317 35.5645 25.535 35.5645H20.4722C19.8755 35.5645 19.3873 35.0746 19.3873 34.4758C19.3873 29.8822 15.6634 26.129 11.0698 26.129C10.4731 26.129 9.9849 25.6391 9.9849 25.0403V19.9597C9.9849 19.3609 10.4731 18.871 11.0698 18.871C15.6634 18.871 19.3873 15.1178 19.3873 10.5242C19.3873 9.9254 19.8755 9.43548 20.4722 9.43548H25.535C26.1317 9.43548 26.6199 9.9254 26.6199 10.5242C26.6199 15.1178 30.3437 18.871 34.9374 18.871C35.534 18.871 36.0222 19.3609 36.0222 19.9597V25.0403Z" fill="#79A6DC"/>
</svg>
