<svg width="46" height="45" viewBox="0 0 46 45" fill="none" xmlns="http://www.w3.org/2000/svg">
<path d="M22.9123 0C10.5265 0 0.491241 10.0706 0.491241 22.5C0.491241 34.9294 10.5265 45 22.9123 45C35.2981 45 45.3333 34.9294 45.3333 22.5C45.3333 10.0706 35.2981 0 22.9123 0ZM35.931 25.0403C35.931 25.6391 35.4428 26.129 34.8461 26.129H26.5286V34.4758C26.5286 35.0746 26.0404 35.5645 25.4437 35.5645H20.3809C19.7842 35.5645 19.296 35.0746 19.296 34.4758V26.129H10.9785C10.3818 26.129 9.89362 25.6391 9.89362 25.0403V19.9597C9.89362 19.3609 10.3818 18.871 10.9785 18.871H19.296V10.5242C19.296 9.9254 19.7842 9.43548 20.3809 9.43548H25.4437C26.0404 9.43548 26.5286 9.9254 26.5286 10.5242V18.871H34.8461C35.4428 18.871 35.931 19.3609 35.931 19.9597V25.0403Z" fill="#79A6DC"/>
</svg>
