<svg width="51" height="45" viewBox="0 0 51 45" fill="none" xmlns="http://www.w3.org/2000/svg">
<path d="M44.7046 27.7778H18.8156L19.3937 30.5555H43.0989C44.459 30.5555 45.4671 31.797 45.1657 33.1006L44.6785 35.2079C46.3292 35.9955 47.4674 37.6587 47.4674 39.5833C47.4674 42.2918 45.2137 44.483 42.449 44.4439C39.8152 44.4067 37.6491 42.3058 37.578 39.7176C37.5391 38.3038 38.1154 37.0224 39.0619 36.111H20.547C21.4634 36.9935 22.0328 38.2227 22.0328 39.5833C22.0328 42.3449 19.69 44.5686 16.8513 44.439C14.3308 44.324 12.281 42.3223 12.1485 39.8456C12.0462 37.9329 13.0702 36.247 14.6258 35.3676L8.42198 5.55555H2.25029C1.07968 5.55555 0.130737 4.62283 0.130737 3.47222V2.08333C0.130737 0.932725 1.07968 0 2.25029 0H11.3051C12.312 0 13.1798 0.696267 13.3816 1.6658L14.1911 5.55555H48.8795C50.2397 5.55555 51.2478 6.79696 50.9464 8.10061L46.7715 26.1562C46.5522 27.1047 45.6943 27.7778 44.7046 27.7778ZM36.1631 14.5833H31.924V11.1111C31.924 10.344 31.2914 9.72222 30.511 9.72222H29.0979C28.3175 9.72222 27.6849 10.344 27.6849 11.1111V14.5833H23.4458C22.6654 14.5833 22.0328 15.2051 22.0328 15.9722V17.3611C22.0328 18.1282 22.6654 18.75 23.4458 18.75H27.6849V22.2222C27.6849 22.9893 28.3175 23.6111 29.0979 23.6111H30.511C31.2914 23.6111 31.924 22.9893 31.924 22.2222V18.75H36.1631C36.9435 18.75 37.5761 18.1282 37.5761 17.3611V15.9722C37.5761 15.2051 36.9435 14.5833 36.1631 14.5833Z" fill="#434242"/>
</svg>
