<svg width="46" height="45" viewBox="0 0 46 45" fill="none" xmlns="http://www.w3.org/2000/svg">
<path d="M23.2527 0C10.8668 0 0.831604 10.0706 0.831604 22.5C0.831604 34.9294 10.8668 45 23.2527 45C35.6385 45 45.6737 34.9294 45.6737 22.5C45.6737 10.0706 35.6385 0 23.2527 0ZM36.2713 25.0403C36.2713 25.6391 35.7831 26.129 35.1864 26.129H26.869V34.4758C26.869 35.0746 26.3808 35.5645 25.7841 35.5645H20.7212C20.1246 35.5645 19.6364 35.0746 19.6364 34.4758V26.129H11.3189C10.7222 26.129 10.234 25.6391 10.234 25.0403V19.9597C10.234 19.3609 10.7222 18.871 11.3189 18.871H19.6364V10.5242C19.6364 9.9254 20.1246 9.43548 20.7212 9.43548H25.7841C26.3808 9.43548 26.869 9.9254 26.869 10.5242V18.871H35.1864C35.7831 18.871 36.2713 19.3609 36.2713 19.9597V25.0403Z" fill="#79A6DC"/>
</svg>
