<svg width="46" height="48" viewBox="0 0 46 48" fill="none" xmlns="http://www.w3.org/2000/svg">
<path d="M22.6732 0.0476379C10.325 0.0476379 0.320251 10.5978 0.320251 23.6191C0.320251 36.6404 10.325 47.1905 22.6732 47.1905C35.0214 47.1905 45.0261 36.6404 45.0261 23.6191C45.0261 10.5978 35.0214 0.0476379 22.6732 0.0476379ZM35.6523 26.2804C35.6523 26.9077 35.1656 27.4209 34.5707 27.4209C29.9911 27.4209 26.2785 31.1335 26.2785 35.7131V36.1651C26.2785 36.7925 25.7918 37.3057 25.1969 37.3057H20.1495C19.5546 37.3057 19.0679 36.7925 19.0679 36.1651V35.7131C19.0679 31.1335 15.3553 27.4209 10.7757 27.4209C10.1808 27.4209 9.69407 26.9077 9.69407 26.2804V20.9578C9.69407 20.3305 10.1808 19.8172 10.7757 19.8172C15.3553 19.8172 19.0679 16.1047 19.0679 11.525V11.073C19.0679 10.4457 19.5546 9.93243 20.1495 9.93243H25.1969C25.7918 9.93243 26.2785 10.4457 26.2785 11.073V11.525C26.2785 16.1047 29.9911 19.8172 34.5707 19.8172C35.1656 19.8172 35.6523 20.3305 35.6523 20.9578V26.2804Z" fill="#79A6DC"/>
</svg>
