<svg width="49" height="45" viewBox="0 0 49 45" fill="none" xmlns="http://www.w3.org/2000/svg">
<path d="M47.3053 14.9387C47.6684 14.5811 48.2084 14.9156 48.2084 15.4808V39.0675C48.2084 42.124 46.2067 44.6038 43.7395 44.6038H5.00862C2.54139 44.6038 0.539673 42.124 0.539673 39.0675V15.4923C0.539673 14.9156 1.07036 14.5926 1.44277 14.9502C3.52828 16.9571 6.29344 19.5061 15.7899 28.0527C17.7544 29.8289 21.0689 33.5659 24.374 33.5428C27.6978 33.5774 31.0775 29.7597 32.9674 28.0527C42.464 19.5061 45.2198 16.9456 47.3053 14.9387ZM24.374 29.8404C26.534 29.8866 29.6437 26.4725 31.2078 25.0654C43.5626 13.9583 44.5029 12.9894 47.3519 10.2213C47.8919 9.70229 48.2084 8.89492 48.2084 8.04141V5.84998C48.2084 2.7935 46.2067 0.313721 43.7395 0.313721H5.00862C2.54139 0.313721 0.539673 2.7935 0.539673 5.84998V8.04141C0.539673 8.89492 0.856223 9.69075 1.39622 10.2213C4.24517 12.9779 5.18551 13.9583 17.5403 25.0654C19.1044 26.4725 22.2141 29.8866 24.374 29.8404Z" fill="black"/>
</svg>
