<svg width="50" height="58" viewBox="0 0 50 58" fill="none" xmlns="http://www.w3.org/2000/svg">
<path d="M25 28.5714C32.8906 28.5714 39.2857 22.1763 39.2857 14.2857C39.2857 6.39509 32.8906 0 25 0C17.1094 0 10.7143 6.39509 10.7143 14.2857C10.7143 22.1763 17.1094 28.5714 25 28.5714ZM35 32.1429H33.1362C30.6585 33.2812 27.9018 33.9286 25 33.9286C22.0982 33.9286 19.3527 33.2812 16.8638 32.1429H15C6.71875 32.1429 0 38.8616 0 47.1429V51.7857C0 54.7433 2.39955 57.1429 5.35714 57.1429H44.6429C47.6004 57.1429 50 54.7433 50 51.7857V47.1429C50 38.8616 43.2812 32.1429 35 32.1429Z" fill="#434242"/>
</svg>
