<svg width="28" height="29" viewBox="0 0 28 29" fill="none" xmlns="http://www.w3.org/2000/svg">
<path d="M19.2247 14.3713L27.0212 6.27911C27.9779 5.28609 27.9779 3.67607 27.0212 2.68224L25.2885 0.883804C24.3317 -0.109217 22.7806 -0.109217 21.823 0.883804L14.0266 8.97596L6.23015 0.883804C5.27342 -0.109217 3.72223 -0.109217 2.76472 0.883804L1.032 2.68224C0.0752698 3.67526 0.0752698 5.28528 1.032 6.27911L8.82845 14.3713L1.032 22.4634C0.0752698 23.4564 0.0752698 25.0665 1.032 26.0603L2.76472 27.8587C3.72145 28.8518 5.27342 28.8518 6.23015 27.8587L14.0266 19.7666L21.823 27.8587C22.7798 28.8518 24.3317 28.8518 25.2885 27.8587L27.0212 26.0603C27.9779 25.0673 27.9779 23.4573 27.0212 22.4634L19.2247 14.3713Z" fill="black"/>
</svg>
