<svg width="45" height="48" viewBox="0 0 45 48" fill="none" xmlns="http://www.w3.org/2000/svg">
<path d="M22.5 0.0476074C10.0706 0.0476074 0 10.5977 0 23.619C0 36.6404 10.0706 47.1905 22.5 47.1905C34.9294 47.1905 45 36.6404 45 23.619C45 10.5977 34.9294 0.0476074 22.5 0.0476074ZM35.5645 26.2803C35.5645 26.9076 35.0746 27.4209 34.4758 27.4209C29.866 27.4209 26.129 31.1579 26.129 35.7677V36.1651C26.129 36.7924 25.6391 37.3057 25.0403 37.3057H19.9597C19.3609 37.3057 18.871 36.7924 18.871 36.1651V35.7677C18.871 31.1579 15.134 27.4209 10.5242 27.4209C9.9254 27.4209 9.43548 26.9076 9.43548 26.2803V20.9577C9.43548 20.3304 9.9254 19.8172 10.5242 19.8172C15.134 19.8172 18.871 16.0802 18.871 11.4704V11.073C18.871 10.4456 19.3609 9.9324 19.9597 9.9324H25.0403C25.6391 9.9324 26.129 10.4456 26.129 11.073V11.4704C26.129 16.0802 29.866 19.8172 34.4758 19.8172C35.0746 19.8172 35.5645 20.3304 35.5645 20.9577V26.2803Z" fill="#79A6DC"/>
</svg>
