<svg width="344" height="81" viewBox="0 0 344 81" fill="none" xmlns="http://www.w3.org/2000/svg">
<g filter="url(#filter0_d_93_27)">
<rect width="336" height="73" transform="translate(4)" fill="white"/>
<path d="M47.0556 51.25C44.9667 51.25 42.8778 49.5875 41.8333 48.875C36.6111 45.55 35.0444 44.3625 34 43.65V53.625C34 54.9364 35.1693 56 36.6111 56H57.5C58.9418 56 60.1111 54.9364 60.1111 53.625V43.65C59.0667 44.3625 57.5 45.55 52.2778 48.875C51.2333 49.5875 49.1444 51.25 47.0556 51.25ZM57.5 37H36.6111C35.1693 37 34 38.0636 34 39.375V40.5625C36.0889 41.9875 35.8278 41.9875 43.4 46.975C44.1833 47.45 45.75 48.875 47.0556 48.875C48.3611 48.875 49.9278 47.45 50.7111 47.2125C58.2833 42.225 58.0222 42.225 60.1111 40.8V39.375C60.1111 38.0636 58.9418 37 57.5 37ZM78.3889 29.875H52.2778C50.836 29.875 49.6667 30.9386 49.6667 32.25V34.625H57.5C60.2098 34.625 62.444 36.5116 62.6986 38.9163L62.7222 38.9V48.875H78.3889C79.8307 48.875 81 47.8114 81 46.5V32.25C81 30.9386 79.8307 29.875 78.3889 29.875ZM75.7778 39.375H70.5556V34.625H75.7778V39.375ZM47.0556 32.25C47.0556 29.6308 49.3982 27.5 52.2778 27.5H70.5556V20.375C70.5556 19.0636 69.3863 18 67.9444 18H41.8333C40.3915 18 39.2222 19.0636 39.2222 20.375V34.625H47.0556V32.25Z" fill="black"/>
</g>
<defs>
<filter id="filter0_d_93_27" x="0" y="0" width="344" height="81" filterUnits="userSpaceOnUse" color-interpolation-filters="sRGB">
<feFlood flood-opacity="0" result="BackgroundImageFix"/>
<feColorMatrix in="SourceAlpha" type="matrix" values="0 0 0 0 0 0 0 0 0 0 0 0 0 0 0 0 0 0 127 0" result="hardAlpha"/>
<feOffset dy="4"/>
<feGaussianBlur stdDeviation="2"/>
<feComposite in2="hardAlpha" operator="out"/>
<feColorMatrix type="matrix" values="0 0 0 0 0 0 0 0 0 0 0 0 0 0 0 0 0 0 0.25 0"/>
<feBlend mode="normal" in2="BackgroundImageFix" result="effect1_dropShadow_93_27"/>
<feBlend mode="normal" in="SourceGraphic" in2="effect1_dropShadow_93_27" result="shape"/>
</filter>
</defs>
</svg>
