<svg width="42" height="43" viewBox="0 0 42 43" fill="none" xmlns="http://www.w3.org/2000/svg">
<path d="M21.33 11.0431C15.5528 11.0431 10.893 15.8026 10.893 21.7033C10.893 27.6039 15.5528 32.3634 21.33 32.3634C27.1071 32.3634 31.767 27.6039 31.767 21.7033C31.767 15.8026 27.1071 11.0431 21.33 11.0431ZM21.33 28.6338C17.5966 28.6338 14.5446 25.5257 14.5446 21.7033C14.5446 17.8808 17.5876 14.7728 21.33 14.7728C25.0724 14.7728 28.1154 17.8808 28.1154 21.7033C28.1154 25.5257 25.0633 28.6338 21.33 28.6338ZM34.6283 10.607C34.6283 11.9894 33.5383 13.0935 32.1939 13.0935C30.8405 13.0935 29.7595 11.9801 29.7595 10.607C29.7595 9.23392 30.8496 8.12058 32.1939 8.12058C33.5383 8.12058 34.6283 9.23392 34.6283 10.607ZM41.5409 13.1306C41.3865 9.79986 40.6416 6.84953 38.2527 4.41875C35.8728 1.98797 32.9842 1.22719 29.7232 1.06019C26.3623 0.865354 16.2886 0.865354 12.9277 1.06019C9.67578 1.21791 6.78721 1.97869 4.39823 4.40947C2.00926 6.84025 1.27349 9.79059 1.10998 13.1213C0.91923 16.5541 0.91923 26.8432 1.10998 30.2759C1.26441 33.6067 2.00926 36.557 4.39823 38.9878C6.78721 41.4186 9.6667 42.1793 12.9277 42.3463C16.2886 42.5412 26.3623 42.5412 29.7232 42.3463C32.9842 42.1886 35.8728 41.4279 38.2527 38.9878C40.6325 36.557 41.3774 33.6067 41.5409 30.2759C41.7317 26.8432 41.7317 16.5634 41.5409 13.1306ZM37.199 33.9592C36.4904 35.7777 35.1188 37.1786 33.3294 37.9116C30.6497 38.9971 24.2912 38.7466 21.33 38.7466C18.3687 38.7466 12.0012 38.9878 9.3306 37.9116C7.55023 37.1879 6.17861 35.787 5.46101 33.9592C4.39823 31.2223 4.64349 24.7278 4.64349 21.7033C4.64349 18.6787 4.40732 12.175 5.46101 9.44731C6.16953 7.62886 7.54114 6.22792 9.3306 5.49497C12.0103 4.40947 18.3687 4.65997 21.33 4.65997C24.2912 4.65997 30.6588 4.41875 33.3294 5.49497C35.1097 6.21864 36.4814 7.61958 37.199 9.44731C38.2617 12.1843 38.0165 18.6787 38.0165 21.7033C38.0165 24.7278 38.2617 31.2316 37.199 33.9592Z" fill="black"/>
</svg>
