<svg width="21" height="25" viewBox="0 0 21 25" fill="none" xmlns="http://www.w3.org/2000/svg">
<path opacity="0.6" d="M10.0778 12.1191C13.2586 12.1191 15.8365 9.40654 15.8365 6.05957C15.8365 2.7126 13.2586 0 10.0778 0C6.89698 0 4.31905 2.7126 4.31905 6.05957C4.31905 9.40654 6.89698 12.1191 10.0778 12.1191ZM14.1089 13.634H13.3576C12.3588 14.1169 11.2475 14.3915 10.0778 14.3915C8.90804 14.3915 7.80128 14.1169 6.798 13.634H6.04667C2.7084 13.634 0 16.4839 0 19.9966V21.9659C0 23.2205 0.967287 24.2383 2.15952 24.2383H17.996C19.1883 24.2383 20.1556 23.2205 20.1556 21.9659V19.9966C20.1556 16.4839 17.4472 13.634 14.1089 13.634Z" fill="black"/>
</svg>
