<svg width="47" height="44" viewBox="0 0 47 44" fill="none" xmlns="http://www.w3.org/2000/svg">
<path d="M41.3139 0.106201H5.42044C2.71823 0.106201 0.525879 2.18835 0.525879 4.75472V38.8439C0.525879 41.4102 2.71823 43.4924 5.42044 43.4924H41.3139C44.0161 43.4924 46.2084 41.4102 46.2084 38.8439V4.75472C46.2084 2.18835 44.0161 0.106201 41.3139 0.106201ZM17.249 31.4837C11.61 31.4837 7.05196 27.1548 7.05196 21.7993C7.05196 16.4438 11.61 12.1149 17.249 12.1149C20.0021 12.1149 22.2965 13.0639 24.0809 14.6522L21.3176 17.1798C20.563 16.4922 19.2476 15.6884 17.2591 15.6884C13.782 15.6884 10.9472 18.4194 10.9472 21.809C10.9472 25.1888 13.782 27.9295 17.2591 27.9295C21.2972 27.9295 22.8063 25.1695 23.051 23.7555H17.249V20.4241H26.8749C26.9769 20.9083 27.0381 21.4022 27.0381 22.0317C27.0381 27.5615 23.1326 31.4837 17.249 31.4837ZM39.6823 23.5619H36.7252V26.3703H33.7477V23.5619H30.7906V20.734H33.7477V17.9255H36.7252V20.734H39.6823V23.5619Z" fill="black"/>
</svg>
