<svg width="48" height="40" viewBox="0 0 48 40" fill="none" xmlns="http://www.w3.org/2000/svg">
<path d="M42.1584 0.62561H5.48473C4.15839 0.62561 2.88637 1.06435 1.94851 1.84531C1.01065 2.62626 0.483765 3.68547 0.483765 4.78991L0.483765 35.3281C0.483765 36.4325 1.01065 37.4917 1.94851 38.2727C2.88637 39.0537 4.15839 39.4924 5.48473 39.4924H19.7843V26.2786H13.2206V20.059H19.7843V15.3186C19.7843 9.92674 23.6393 6.9484 29.5435 6.9484C32.3711 6.9484 35.328 7.3683 35.328 7.3683V12.6604H32.07C28.8601 12.6604 27.8588 14.3192 27.8588 16.0205V20.059H35.0248L33.8787 26.2786H27.8588V39.4924H42.1584C43.4848 39.4924 44.7568 39.0537 45.6947 38.2727C46.6325 37.4917 47.1594 36.4325 47.1594 35.3281V4.78991C47.1594 3.68547 46.6325 2.62626 45.6947 1.84531C44.7568 1.06435 43.4848 0.62561 42.1584 0.62561Z" fill="black"/>
</svg>
