<svg width="29" height="28" viewBox="0 0 29 28" fill="none" xmlns="http://www.w3.org/2000/svg">
<path d="M27.989 23.4991L22.6516 18.2529C22.4107 18.0161 22.0842 17.8846 21.7416 17.8846H20.8689C22.3465 16.0271 23.2244 13.6908 23.2244 11.1493C23.2244 5.10334 18.2404 0.204468 12.0893 0.204468C5.93826 0.204468 0.954224 5.10334 0.954224 11.1493C0.954224 17.1953 5.93826 22.0941 12.0893 22.0941C14.675 22.0941 17.052 21.2312 18.9417 19.7789V20.6366C18.9417 20.9734 19.0755 21.2943 19.3165 21.5311L24.6538 26.7773C25.157 27.2719 25.9708 27.2719 26.4686 26.7773L27.9836 25.2881C28.4869 24.7935 28.4869 23.9937 27.989 23.4991ZM12.0893 17.8846C8.30447 17.8846 5.23696 14.8748 5.23696 11.1493C5.23696 7.42911 8.29912 4.41402 12.0893 4.41402C15.8742 4.41402 18.9417 7.42385 18.9417 11.1493C18.9417 14.8695 15.8796 17.8846 12.0893 17.8846Z" fill="#767373"/>
</svg>
