<svg width="23" height="25" viewBox="0 0 23 25" fill="none" xmlns="http://www.w3.org/2000/svg">
<path opacity="0.6" d="M22.675 8.57701C22.675 13.3139 19.1853 17.1539 14.8805 17.1539C14.3836 17.1539 13.8977 17.1022 13.4267 17.0044L12.3632 18.3208C12.2635 18.4443 12.1412 18.5431 12.0042 18.6107C11.8673 18.6784 11.7189 18.7134 11.5688 18.7134H9.92031V20.6627C9.92031 21.3086 9.44445 21.8323 8.85742 21.8323H7.08594V23.7816C7.08594 24.4275 6.61007 24.9512 6.02305 24.9512H1.06289C0.475865 24.9512 0 24.4275 0 23.7816V19.9776C0 19.6674 0.112002 19.3699 0.311294 19.1505L7.47704 11.2655C7.22358 10.4197 7.08594 9.51609 7.08594 8.57697C7.08594 3.84004 10.5756 4.87332e-05 14.8804 4.65523e-10C19.1979 -4.87323e-05 22.675 3.82606 22.675 8.57701ZM14.8805 6.23779C14.8805 7.5297 15.8322 8.57697 17.0062 8.57697C18.1803 8.57697 19.132 7.5297 19.132 6.23779C19.132 4.94589 18.1803 3.89862 17.0062 3.89862C15.8322 3.89862 14.8805 4.94589 14.8805 6.23779Z" fill="black"/>
</svg>
