<svg width="38" height="32" viewBox="0 0 38 32" fill="none" xmlns="http://www.w3.org/2000/svg">
<path d="M33.2715 0.67627H4.40067C3.35653 0.67627 2.35516 1.02318 1.61684 1.64068C0.878527 2.25818 0.463745 3.09569 0.463745 3.96897L0.463745 28.1154C0.463745 28.9887 0.878527 29.8262 1.61684 30.4437C2.35516 31.0612 3.35653 31.4081 4.40067 31.4081H33.2715C34.3156 31.4081 35.317 31.0612 36.0553 30.4437C36.7936 29.8262 37.2084 28.9887 37.2084 28.1154V3.96897C37.2084 3.09569 36.7936 2.25818 36.0553 1.64068C35.317 1.02318 34.3156 0.67627 33.2715 0.67627ZM31.9272 21.7612L30.6969 26.2201C30.6344 26.4468 30.4819 26.6491 30.2643 26.794C30.0466 26.9388 29.7767 27.0178 29.4986 27.0179C16.3755 27.0179 5.71298 18.12 5.71298 7.12447C5.72274 6.89402 5.82069 6.67228 5.9924 6.49186C6.16412 6.31145 6.40053 6.18189 6.66687 6.12226L11.9981 5.09329C12.0891 5.07721 12.1816 5.06825 12.2745 5.06654C12.5124 5.07658 12.7428 5.1397 12.9417 5.24935C13.1406 5.359 13.3008 5.51118 13.4056 5.69009L15.8662 10.4919C15.9264 10.6214 15.96 10.7585 15.9654 10.8974C15.9454 11.202 15.7834 11.4879 15.5143 11.6938L12.4066 13.8203C14.2896 17.1582 17.5017 19.8447 21.4927 21.4196L24.0353 18.8204C24.2815 18.5953 24.6233 18.4599 24.9875 18.4431C25.1536 18.4476 25.3175 18.4757 25.4723 18.5261L31.2136 20.5841C31.4276 20.6716 31.6097 20.8056 31.7408 20.9719C31.8719 21.1383 31.9473 21.331 31.9592 21.53C31.9575 21.6078 31.9468 21.6852 31.9272 21.7612Z" fill="black"/>
</svg>
